<svg width="23" height="23" viewBox="0 0 23 23" fill="none" xmlns="http://www.w3.org/2000/svg">
<path d="M11.4991 22.9278C10.9358 22.9278 10.4776 22.4696 10.4776 21.9064V12.5205H1.09171C0.528512 12.5205 0.0703125 12.0623 0.0703125 11.4991C0.0703125 10.9358 0.528512 10.4776 1.09171 10.4776H10.4776V1.09171C10.4776 0.528512 10.9358 0.0703125 11.4991 0.0703125C12.0623 0.0703125 12.5206 0.528512 12.5206 1.09171V10.4776H21.9064C22.4696 10.4776 22.9278 10.9358 22.9278 11.4991C22.9278 12.0623 22.4696 12.5205 21.9064 12.5205H12.5206V21.9064C12.5206 22.4696 12.0623 22.9278 11.4991 22.9278Z" fill="black"/>
</svg>
