<svg width="46" height="46" viewBox="0 0 46 46" fill="none" xmlns="http://www.w3.org/2000/svg">
<path d="M45.8023 0.19873H0.201172V45.7998H45.8023V0.19873Z" fill="black"/>
<path d="M20.1511 32.975C19.9254 32.9747 19.703 32.9209 19.5022 32.8179C19.3013 32.7149 19.1278 32.5657 18.9958 32.3826C18.8639 32.1996 18.7772 31.9878 18.743 31.7647C18.7088 31.5416 18.7281 31.3136 18.7991 31.0994L24.4993 13.9987C24.6188 13.6401 24.876 13.3438 25.2141 13.1748C25.5522 13.0058 25.9436 12.978 26.3021 13.0976C26.6607 13.2172 26.9571 13.4743 27.126 13.8124C27.295 14.1505 27.3228 14.5419 27.2032 14.9005L21.5031 32.001C21.4084 32.2847 21.2269 32.5314 20.9842 32.7062C20.7416 32.881 20.4501 32.9751 20.1511 32.975Z" fill="white"/>
<path d="M11.6003 32.9751C11.3746 32.9748 11.1522 32.9209 10.9514 32.8179C10.7506 32.7149 10.577 32.5658 10.4451 32.3827C10.3131 32.1996 10.2265 31.9878 10.1923 31.7647C10.1581 31.5416 10.1773 31.3136 10.2483 31.0994L15.9485 13.9987C16.0688 13.6411 16.326 13.3457 16.6637 13.1774C17.0015 13.0091 17.3922 12.9817 17.7502 13.101C18.1082 13.2204 18.4042 13.4769 18.5734 13.8143C18.7425 14.1516 18.7709 14.5422 18.6525 14.9005L12.9523 32.0011C12.8576 32.2847 12.6761 32.5314 12.4335 32.7062C12.1908 32.8811 11.8994 32.9751 11.6003 32.9751Z" fill="white"/>
<path d="M28.7019 32.9751C28.4762 32.9748 28.2538 32.9209 28.053 32.8179C27.8521 32.7149 27.6786 32.5658 27.5466 32.3827C27.4147 32.1996 27.328 31.9878 27.2938 31.7647C27.2596 31.5416 27.2788 31.3136 27.3499 31.0994L33.05 13.9987C33.1703 13.6411 33.4275 13.3457 33.7653 13.1774C34.1031 13.0091 34.4938 12.9817 34.8518 13.101C35.2098 13.2204 35.5058 13.4769 35.6749 13.8143C35.8441 14.1516 35.8725 14.5422 35.754 14.9005L30.0539 32.0011C29.9592 32.2847 29.7777 32.5315 29.5351 32.7063C29.2924 32.8811 29.0009 32.9751 28.7019 32.9751Z" fill="white"/>
</svg>
